<svg id="visual" viewBox="0 0 900 600" width="900" height="600" xmlns="http://www.w3.org/2000/svg" xmlns:xlink="http://www.w3.org/1999/xlink" version="1.1"><rect x="0" y="0" width="900" height="600" fill="#002233"></rect><path d="M323 600L355.3 580C387.7 560 452.3 520 504.3 480C556.3 440 595.7 400 622.3 360C649 320 663 280 643 240C623 200 569 160 536.8 120C504.7 80 494.3 40 489.2 20L484 0L900 0L900 20C900 40 900 80 900 120C900 160 900 200 900 240C900 280 900 320 900 360C900 400 900 440 900 480C900 520 900 560 900 580L900 600Z" fill="#00d8ff" stroke-linecap="round" stroke-linejoin="miter"></path></svg>